<svg version="1.0" xmlns="http://www.w3.org/2000/svg" width="341.333" height="341.333" viewBox="0 0 256 256"><path d="M48 21.5c-16.5 4.6-28.2 15.7-33 31.4-6.7 21.5 3.9 45.4 24.3 54.8l5.7 2.7v39.7c0 25.7.4 40.8 1.1 42.6.5 1.5 2.2 4.1 3.7 5.7 5.1 5.4 6.5 5.6 39.6 5.6H120l.5 2.7c1.9 8.8 8.4 17.4 16.8 22.1 6 3.4 16.7 6.3 24.6 6.5 6.5.2 7.5 0 8.7-1.9 1.4-2 1.2-2.6-3.6-8-5.9-6.7-7.8-11.8-6.4-17.2l.9-3.7 35-.5c24-.3 35.6-.9 37-1.7 3.1-1.8 7.3-6.5 8.4-9.6.7-1.8 1.1-18.2 1.1-46.9 0-42-.1-44.4-2-48.2-1.1-2.3-3.6-5.2-5.7-6.6l-3.7-2.5-65.8-.3L100 88l2.1-5.3c2.6-6.5 3.5-18.4 2-25.7-3.2-15.4-15.1-29-29.9-34.1-7.8-2.7-19.2-3.3-26.2-1.4zM65.8 29c11.9 2.2 22.1 9.9 27.4 20.8 3.1 6.2 3.3 7.4 3.3 16.7 0 9.3-.2 10.5-3.3 16.7-6.7 13.6-19.3 21.3-34.9 21.2-7.3 0-8.9-.4-15.7-3.7-8.5-4.3-14.1-9.8-18.3-18.6-2.5-5-2.8-6.7-2.8-15.6 0-8.8.3-10.7 2.7-15.7C31.7 34.7 48.8 25.7 65.8 29zm163.5 68.1c5.8 3 5.7 1.5 5.7 49.6v44.1l-3.1 2.6-3.1 2.6h-34.3c-18.9 0-35.1.3-36 .6-3 1.2-5.9 8.5-5.9 14.9-.1 5.5.4 7 4.2 14.9.7 1.4-6.9-.4-13.1-3.1-9.3-4.2-15.7-12.7-15.7-21.1 0-2.1-.5-4.3-1.2-5-.9-.9-10-1.2-34.6-1.2H58.8l-2.9-2.9-2.9-3 .2-38.8.3-38.8 3.6.3c5 .4 14.8-1.4 20.3-3.9 4.5-1.9 11.7-7 15.6-10.9 2-2 3-2 68.1-2 46.7 0 66.7.3 68.2 1.1z"/><path d="M52.3 40c-4.4 2.6-6.5 7-6.1 12.7.4 6 3 7.9 5.9 4.4 1-1.3 1.9-3.6 1.9-5.1 0-1.6.7-3.6 1.6-4.4 3.4-3.4 8.4-.8 8.4 4.5 0 1.7-1.4 5-3.5 8-2.9 4.2-3.5 6-3.5 10.3 0 5.4 1.2 7.6 4.2 7.6 2.2 0 3.8-3 3.8-7.2 0-2.2 1.2-5 3.5-8.2 2.9-4.1 3.5-5.8 3.5-10 0-6.3-2.8-11.2-7.5-13.2-4.7-1.9-8.4-1.8-12.2.6zM58.5 88.6c-1.9 2-1.6 4.3.8 5.8 3.7 2.3 7.7-3.5 4.1-6.1-2.3-1.7-2.9-1.6-4.9.3zM81.1 116.3c-.8 1-1.1 9.3-.9 29.2.3 25.2.5 27.9 2.1 28.9 1.2.8 2.2.8 3.5 0 1.5-1 1.7-3 2-14.7l.3-13.6 11.6-.3c9.8-.3 11.8-.6 12.7-2 .8-1.3.8-2.3 0-3.5-.9-1.5-2.9-1.8-12.8-2.1l-11.6-.3v-14.8l11.6-.3c9.9-.3 11.9-.6 12.8-2.1.8-1.2.8-2.2 0-3.5-1-1.5-3.1-1.7-15.6-2-11.5-.2-14.8 0-15.7 1.1zM134.8 116.7C133 118.9 115 167.2 115 170c0 2.2 3.2 4.3 5.4 3.4.8-.3 3-4.4 4.7-9l3.2-8.5 9.4.3 9.5.3 3.2 7.8c3.6 9 6 11.2 8.7 7.8 1.8-2.1 1.7-2.5-2-12.9-8.3-23.1-16.1-42.6-17.3-43.3-2-1.3-3.4-1.1-5 .8zm6.3 22.7c1.5 4.1 2.4 7.7 2.1 8-1 1-10.1.6-10.7-.4-.7-1.1 4.3-15 5.3-15 .4 0 1.9 3.4 3.3 7.4zM182.5 116.3c-3.8 1.7-9.2 7.8-10.2 11.5-.5 1.5-.8 9.5-.8 17.9v15.1l3 4.4c5.3 7.6 15 10.7 22.9 7.4 3.3-1.4 3.5-1.3 6.2 1.5 2.9 3 6.2 3.7 8.2 1.7 1.8-1.8 1.5-3.4-1.7-7.1l-3-3.3 1.6-5.3c1.1-3.9 1.4-8.6 1.1-17.9-.4-14.6-1.7-18.5-8.1-23.6-3.1-2.5-4.8-3.1-10-3.3-3.8-.2-7.4.2-9.2 1zm12.8 7.8c5.2 2.7 5.7 4.4 5.7 20.3v14.8l-3.5-3.1c-4-3.5-3.9-3.5-6.6-2.1-2.6 1.4-2.4 4.3.6 7.8 1.7 2 2.2 3.3 1.5 3.7-2.2 1.3-7.7-.6-10.6-3.6l-2.9-3v-14.2c0-11.9.3-14.6 1.7-16.7 3.3-4.6 9.4-6.3 14.1-3.9z"/></svg>